<svg width="1082" height="1963" xmlns="http://www.w3.org/2000/svg" xmlns:xlink="http://www.w3.org/1999/xlink"><defs>
    <symbol viewBox="0 0 147 143" id="arrow-bold">
        <path d="m92.6.6 53.801 71.2-53.8 71.2H67l25-33c8.2-10.8 15-19.8 22.2-28.8H.801v-19h113.4c-7.2-9-14-17.8-22.2-28.6L67 .6h25.6Z" />
    </symbol>
    <symbol viewBox="0 0 9 9" id="arrow-bottom">
        <path d="M7.14 6.042c-.596.44-1.079.803-1.573 1.187V1H4.398v6.22a48.31 48.31 0 0 0-1.55-1.177L.994 4.67v1.373l4 2.957 4-2.957V4.67L7.14 6.042Z" />
    </symbol>
    <symbol viewBox="0 0 13 13" id="arrow-close">
        <path fill-rule="evenodd" clip-rule="evenodd" d="M11.186 1.813a.5.5 0 0 1 0 .708l-3.25 3.25a.5.5 0 1 1-.708-.708l3.25-3.25a.5.5 0 0 1 .708 0ZM5.77 7.23a.5.5 0 0 1 0 .708l-3.25 3.25a.5.5 0 1 1-.708-.708l3.25-3.25a.5.5 0 0 1 .708 0ZM7.228 7.23a.5.5 0 0 1 .708 0l3.25 3.25a.5.5 0 0 1-.707.707l-3.25-3.25a.5.5 0 0 1 0-.707ZM1.812 1.813a.5.5 0 0 1 .708 0l3.25 3.25a.5.5 0 0 1-.708.708l-3.25-3.25a.5.5 0 0 1 0-.708Z" />
    </symbol>
    <symbol viewBox="0 0 13 13" id="arrow-expand">
        <path fill-rule="evenodd" clip-rule="evenodd" d="M8.166 2.167a.5.5 0 0 1 .5-.5h2.167a.5.5 0 0 1 .5.5v2.167a.5.5 0 0 1-1 0V2.667H8.666a.5.5 0 0 1-.5-.5Z" />
        <path fill-rule="evenodd" clip-rule="evenodd" d="M11.186 1.813a.5.5 0 0 1 0 .708l-3.25 3.25a.5.5 0 1 1-.708-.708l3.25-3.25a.5.5 0 0 1 .708 0ZM2.166 8.167a.5.5 0 0 1 .5.5v1.667h1.667a.5.5 0 1 1 0 1H2.166a.5.5 0 0 1-.5-.5V8.667a.5.5 0 0 1 .5-.5Z" />
        <path fill-rule="evenodd" clip-rule="evenodd" d="M5.77 7.23a.5.5 0 0 1 0 .708l-3.25 3.25a.5.5 0 1 1-.708-.708l3.25-3.25a.5.5 0 0 1 .708 0ZM10.833 8.167a.5.5 0 0 1 .5.5v2.167a.5.5 0 0 1-.5.5H8.666a.5.5 0 0 1 0-1h1.667V8.667a.5.5 0 0 1 .5-.5Z" />
        <path fill-rule="evenodd" clip-rule="evenodd" d="M7.228 7.23a.5.5 0 0 1 .708 0l3.25 3.25a.5.5 0 0 1-.707.707l-3.25-3.25a.5.5 0 0 1 0-.707ZM1.666 2.167a.5.5 0 0 1 .5-.5h2.167a.5.5 0 0 1 0 1H2.666v1.667a.5.5 0 0 1-1 0V2.167Z" />
        <path fill-rule="evenodd" clip-rule="evenodd" d="M1.812 1.813a.5.5 0 0 1 .708 0l3.25 3.25a.5.5 0 0 1-.708.708l-3.25-3.25a.5.5 0 0 1 0-.708Z" />
    </symbol>
    <symbol viewBox="0 0 9 9" id="arrow-left">
        <path d="M3.95 7.145a75.766 75.766 0 0 0-1.187-1.573h6.23V4.403h-6.22a48.32 48.32 0 0 0 1.177-1.55L5.323.998H3.95l-2.956 4 2.956 4h1.373L3.95 7.145Z" />
    </symbol>
    <symbol viewBox="0 0 9 9" id="arrow-right">
        <path d="M6.038 2.701c.44.558.802 1.01 1.186 1.473H.994V5.27h6.22c-.385.452-.748.905-1.176 1.452L4.664 8.458h1.374L8.994 4.71 6.038.965H4.664L6.038 2.7Z" />
    </symbol>
    <symbol viewBox="0 0 13 12" id="arrow-up-right">
        <path d="M1.368 0H12.274V10.488L10.716 11.932V6.574C10.716 5.244 10.716 3.933 10.735 2.603L1.083 11.97L0 10.792L9.69 1.425C8.36 1.444 7.03 1.444 5.7 1.444H0L1.368 0Z"/>
    </symbol>
    <symbol viewBox="0 0 38 39" id="back-arrow-left">
        <path d="m1.706 19.5 18.118 18.146-.706.707L.293 19.5 19.118.646l.706.708L1.706 19.5Z" />
        <path d="M38 20.028H1.058v-1H38v1Z" />
    </symbol>
    <symbol viewBox="0 0 38 39" id="back-arrow-right">
        <path d="M36.294 19.5 18.176 1.354l.706-.708L37.707 19.5 18.882 38.354l-.706-.708L36.294 19.5Z" />
        <path d="M0 18.972h36.942v1H0v-1Z" />
    </symbol>
    <symbol viewBox="0 0 6 6" id="drag-arrow-left">
        <path d="M2.217 1.385c-.33.445-.602.806-.89 1.175H6v.873H1.335c.289.361.56.722.882 1.158l1.03 1.386h-1.03L0 2.988 2.217 0h1.03l-1.03 1.385Z" />
    </symbol>
    <symbol viewBox="0 0 6 6" id="drag-arrow-right">
        <path d="M3.783 4.592c.33-.445.602-.806.89-1.175H0v-.873h4.665a36.11 36.11 0 0 1-.882-1.159L2.753 0h1.03L6 2.988 3.783 5.977h-1.03l1.03-1.385Z" />
    </symbol>
    <symbol viewBox="0 0 222 25" id="footer-logo">
        <path d="M60.62.997H1.986a.984.984 0 0 0-.992.975V19.62c0 .061.019.12.052.173l3.242 5.052c.06.094.165.152.28.152H60.62a.984.984 0 0 0 .992-.975V1.972a.984.984 0 0 0-.992-.975ZM18.214 22.071a.44.44 0 0 1-.442.435H12.85a.439.439 0 0 1-.374-.204l-8.92-13.96a.195.195 0 0 1-.029-.1V3.924a.44.44 0 0 1 .443-.435h4.922a.44.44 0 0 1 .374.204l8.947 13.942v4.439l.001-.002Zm17.94-6.471a.44.44 0 0 1-.442.435h-6.819l.994 1.55c.018.031.03.066.03.1v4.384a.44.44 0 0 1-.444.435h-4.92a.438.438 0 0 1-.376-.204L15.261 8.338a.195.195 0 0 1-.03-.099v-4.32a.44.44 0 0 1 .443-.435h4.921c.153 0 .294.076.375.204l6.007 9.363c.237.37.667.53 1.093.41a.939.939 0 0 0 .704-.919V3.923a.44.44 0 0 1 .442-.435h6.492a.44.44 0 0 1 .443.435v11.679l.004-.002ZM89.204 11.135c-.59 2.349-1.21 4.858-1.75 7.27-.491-2.412-1.031-4.923-1.621-7.302l-1.98-7.641h-3.748l-1.98 7.64a258.152 258.152 0 0 0-1.654 7.27c-.507-2.396-1.163-4.89-1.75-7.237l-1.997-7.673H68.91l5.368 19.023h4.075l2.046-7.917a125.003 125.003 0 0 0 1.57-6.734c.458 2.25 1.031 4.549 1.571 6.734l2.047 7.917h4.107l5.319-19.023h-3.781l-2.03 7.673h.002ZM96.897 22.502h14.123v-3.239h-10.49v-4.97h9.542v-3.11h-9.542V6.7h10.556V3.462h-14.19v19.04ZM125.799 12.48c1.604-.809 2.57-2.218 2.57-4.096 0-2.59-1.783-4.922-6.218-4.922h-8.706v19.04h9.002c4.534 0 6.694-2.203 6.694-5.457h.016c0-1.894-1.08-3.74-3.354-4.565h-.004Zm-8.705-6.04h4.778c1.897 0 2.864.988 2.864 2.412 0 1.57-.967 2.558-2.864 2.558h-4.778V6.438v.002Zm5.154 13.081h-5.154V14.26h5.154c1.964 0 3.158.84 3.158 2.639 0 1.668-1.113 2.622-3.158 2.622ZM135.029 3.462h-3.65v19.023h3.65V3.462ZM147.086 11.41l-1.67-.322c-2.864-.583-3.747-1.28-3.747-2.802 0-1.44 1.13-2.348 3.453-2.348 3.044 0 4.108 1.15 4.238 3.173h3.535c-.131-3.578-2.438-6.087-7.839-6.087-4.614 0-7.135 2.219-7.135 5.376 0 3.447 2.454 5.083 6.185 5.78l1.621.323c2.946.583 3.944 1.263 3.944 2.753 0 1.797-1.374 2.752-3.895 2.752-2.684 0-4.713-.794-4.761-3.789h-3.568c.041 4.361 3.116 6.686 8.249 6.686 4.794 0 7.774-2.088 7.774-5.86 0-3.012-1.85-4.76-6.382-5.634h-.002Z" />
        <path d="M137.416 16.22h.032v-.016l-.032.016ZM164.554 3.042c-5.794 0-9.622 3.951-9.622 9.94 0 5.99 3.863 9.94 9.622 9.94s9.589-3.95 9.589-9.94c0-5.989-3.797-9.94-9.589-9.94Zm0 16.708c-3.518 0-5.811-2.558-5.811-6.768 0-4.209 2.291-6.767 5.811-6.767s5.811 2.574 5.811 6.767c0 4.194-2.291 6.768-5.811 6.768ZM176.611 22.502h3.65v-8.21h9.05v-3.108h-9.05V6.7h9.933V3.462h-13.583v19.04ZM191.291 6.7h6.154v15.802h3.681V6.7h6.154V3.462h-15.989V6.7ZM217.986 12.075l-.082-.939c-.033-.648-.23-1.15-.818-1.424.671-.307.966-.906.966-1.57 0-1.248-.949-1.975-2.487-1.975h-3.141v6.848h1.57v-2.541h1.457c.623 0 .818.211.867.873l.05.73c.033.404.083.697.246.938h1.653c-.18-.243-.262-.518-.294-.938h.017l-.004-.002Zm-2.504-2.883h-1.489V7.508h1.44c.654 0 .997.29.997.825 0 .534-.36.857-.949.857l.001.002Z" />
        <path d="M215.104 3.042c-3.864 0-6.891 2.962-6.891 6.62 0 3.66 2.994 6.606 6.891 6.606 3.896 0 6.888-2.946 6.888-6.605 0-3.659-3.027-6.621-6.888-6.621Zm0 11.787c-3.028 0-5.352-2.202-5.352-5.164 0-2.962 2.291-5.213 5.352-5.213 3.06 0 5.351 2.25 5.351 5.213 0 2.962-2.324 5.164-5.351 5.164Z" />
    </symbol>
    <symbol viewBox="0 0 459 14" preserveAspectRatio="none" id="header-footer">
        <path fill-rule="evenodd" d="M119 13.5H11.988L0 1.094V0h459v13.5H221v-3a4 4 0 0 0-4-4h-94a4 4 0 0 0-4 4v3Z" />
    </symbol>
    <symbol viewBox="0 0 72 41" id="header-logo">
        <path d="M68.3 0H54.523a.94.94 0 0 0-.94.938V19.52a2.02 2.02 0 0 1-1.493 1.98 2.02 2.02 0 0 1-2.32-.883L37.018.44a.932.932 0 0 0-.796-.44H25.778a.94.94 0 0 0-.94.938v9.31c0 .078.02.152.063.214l18.924 30.095c.171.276.471.44.795.44h10.445a.94.94 0 0 0 .94-.938v-9.451a.404.404 0 0 0-.063-.214l-2.11-3.342h14.472a.94.94 0 0 0 .94-.938V.938a.94.94 0 0 0-.94-.938H68.3ZM11.388 0H.94A.94.94 0 0 0 0 .938v9.31c0 .078.02.152.062.214l18.924 30.095c.172.276.472.44.796.44h10.444a.94.94 0 0 0 .94-.938V30.49L12.183.44a.932.932 0 0 0-.795-.44ZM69.711 38.254c0 1.52-1.224 2.743-2.819 2.743-1.594 0-2.818-1.226-2.818-2.743 0-1.518 1.24-2.751 2.818-2.751 1.58 0 2.82 1.21 2.82 2.75Zm-.627 0c0-1.23-.936-2.164-2.188-2.164-1.251 0-2.187.934-2.187 2.164s.951 2.143 2.187 2.143c1.236 0 2.188-.922 2.188-2.143Zm-1.018 1c.012.175.047.288.12.389h-.674c-.066-.102-.085-.222-.101-.39l-.02-.303c-.019-.276-.1-.362-.354-.362h-.597v1.055h-.643v-2.845h1.287c.627 0 1.017.304 1.017.822 0 .276-.12.525-.394.653.242.113.32.323.336.591l.035.39h-.012Zm-1.018-1.199c.242 0 .39-.136.39-.358 0-.222-.14-.342-.41-.342h-.588v.7h.608Z" />
    </symbol>
    <symbol viewBox="0 0 936 124" id="hero-logo">
        <path d="M124.082 51.1358C120.476 65.6551 116.68 81.1675 113.378 96.0773C110.379 81.1675 107.076 65.6439 103.471 50.935L91.3625 3.68335H68.4489L56.3406 50.9238C52.8362 65.6327 49.3317 80.9555 46.2317 95.8653C43.1316 81.0559 39.1217 65.6327 35.5274 51.1247L23.318 3.68335H0L32.8204 121.299H57.7334L70.246 72.3511C73.7505 58.8363 77.0527 44.6295 79.8496 30.713C82.6464 44.6295 86.1508 58.8363 89.4531 72.3511L101.966 121.299H127.081L159.598 3.68335H136.482L124.071 51.1247L124.082 51.1358Z" />
        <path d="M167.773 121.4H254.126V101.379H189.991V70.655H248.319V51.4262H189.991V23.7047H190.081H254.531V3.68359H167.773V121.4Z" />
        <path d="M343.857 59.4392C353.662 54.4395 359.571 45.7235 359.571 34.117C359.571 18.1024 348.664 3.68359 321.55 3.68359H268.32V121.4H323.358C351.079 121.4 364.288 107.784 364.288 87.6629H364.389C364.389 75.956 357.785 64.5393 343.879 59.4392H343.857ZM290.627 22.0977H319.842C331.445 22.0977 337.353 28.2022 337.353 37.0075C337.353 46.7167 331.445 52.8212 319.842 52.8212H290.627V22.0865V22.0977ZM322.145 102.974H290.627V70.443H322.145C334.152 70.443 341.453 75.6435 341.453 86.7589C341.453 97.0708 334.646 102.974 322.145 102.974Z" />
        <path d="M398.303 3.68359H375.984V121.299H398.303V3.68359Z" />
        <path d="M472.056 52.832L461.846 50.8343C444.335 47.2296 438.933 42.9219 438.933 33.5139C438.933 24.6082 445.84 18.9947 460.049 18.9947C478.661 18.9947 485.164 26.1037 485.962 38.6141H507.572C506.775 16.4949 492.667 0.982422 459.645 0.982422C431.43 0.982422 416.019 14.6981 416.019 34.217C416.019 55.5327 431.025 65.6437 453.838 69.9515L463.745 71.9491C481.761 75.5538 487.86 79.7611 487.86 88.9682C487.86 100.084 479.458 105.987 464.048 105.987C447.638 105.987 435.226 101.077 434.934 82.5623H413.121C413.368 109.525 432.171 123.899 463.554 123.899C492.87 123.899 511.088 110.987 511.088 87.6625C511.088 69.0475 499.777 58.2334 472.068 52.832H472.056Z" />
        <path d="M418.871 82.5624H419.072C419.072 82.5624 419.072 82.4954 419.072 82.4619L418.871 82.5624Z" />
        <path d="M579.811 1.08301C544.384 1.08301 520.977 25.5123 520.977 62.5414C520.977 99.5704 544.598 124 579.811 124C615.024 124 638.443 99.5704 638.443 62.5414C638.443 25.5123 615.237 1.08301 579.811 1.08301ZM579.811 104.38C558.301 104.38 544.283 88.5666 544.283 62.5414C544.283 36.5161 558.29 20.7024 579.811 20.7024C601.332 20.7024 615.338 36.6166 615.338 62.5414C615.338 88.4661 601.332 104.38 579.811 104.38Z" />
        <path d="M650.934 121.4H673.241V70.655H728.582V51.4262H673.241V23.7047H733.984V3.68359H650.934V121.4Z" />
        <path d="M745.301 23.7047H782.929V121.4H805.438V23.7047H843.066V3.68359H745.301V23.7047Z" />
        <path d="M907.687 56.9389L907.181 51.1357C906.979 47.1292 905.777 44.0268 902.183 42.3304C906.283 40.4332 908.091 36.7281 908.091 32.6212C908.091 24.9096 902.284 20.4121 892.883 20.4121H873.676V62.7533H883.279V47.04H892.186C895.994 47.04 897.185 48.3457 897.488 52.4414L897.791 56.9501C897.993 59.4499 898.297 61.2579 899.296 62.7533H909.405C908.305 61.2467 907.799 59.5504 907.608 56.9501H907.709L907.687 56.9389ZM892.377 39.1163H883.268V28.704H892.074C896.073 28.704 898.173 30.5008 898.173 33.8042C898.173 37.1075 895.972 39.1052 892.366 39.1052L892.377 39.1163Z" />
        <path d="M890.077 1.08301C866.456 1.08301 847.945 19.3966 847.945 42.018C847.945 64.6394 866.254 82.8526 890.077 82.8526C913.901 82.8526 932.198 64.6394 932.198 42.018C932.198 19.3966 913.699 1.08301 890.077 1.08301ZM890.077 73.9581C871.567 73.9581 857.358 60.3428 857.358 42.0292C857.358 23.7156 871.364 9.799 890.077 9.799C908.79 9.799 922.797 23.7156 922.797 42.0292C922.797 60.3428 908.588 73.9581 890.077 73.9581Z" />
    </symbol>
    <symbol viewBox="0 0 1082 261" id="title-advsr">
        <path style="--index:0;" d="M1073.39 224.35C1074.09 235.2 1076.54 246.75 1081.79 254.8H1043.29C1038.04 247.1 1036.29 235.9 1035.94 222.95L1034.89 196.35C1033.49 162.75 1020.19 152.25 992.54 152.25H920.09V254.8H882.64V5.6001H991.49C1043.99 5.6001 1077.24 31.1501 1077.24 74.5501C1077.24 105.7 1061.14 126.35 1035.24 134.75C1060.79 142.1 1069.89 159.6 1070.94 185.5L1073.39 224.35ZM992.19 121.1C1019.49 121.1 1038.74 106.75 1038.74 78.0501C1038.74 49.3501 1019.49 37.8001 989.39 37.8001H920.09V121.1H992.19Z" />
        <path style="--index:1;" d="M766.45 260.4C703.8 260.4 662.15 232.75 661.8 172.55H699.25C699.95 215.6 729.35 228.55 767.15 228.55C804.95 228.55 824.55 214.2 824.55 186.9C824.55 164.85 809.85 154.7 768.2 145.6L746.85 141.05C701.7 131.95 669.15 112.7 669.15 67.55C669.15 26.95 702.05 0 757.35 0C829.1 0 855.35 35.35 856.4 78.75H819.3C817.2 49.35 802.85 31.85 757.7 31.85C724.1 31.85 707.3 45.5 707.3 66.85C707.3 88.2 718.85 99.4 761.55 108.85L783.25 113.4C841.35 125.65 863.4 148.05 863.4 185.85C863.4 232.05 827.35 260.4 766.45 260.4Z" />
        <path style="--index:2;" d="M635.2 5.6001H674.05L583.05 254.8H540.35L447.6 5.6001H487.15L539.3 150.5C547.35 173.25 555.05 196.35 561.7 219.1C568.7 196.35 576.4 173.25 584.1 150.5L635.2 5.6001Z" />
        <path style="--index:3;" d="M337.56 5.6001C415.61 5.6001 461.11 53.2001 461.11 130.2C461.11 207.2 415.61 254.8 337.56 254.8H248.66V5.6001H337.56ZM337.21 221.9C392.16 221.9 421.91 188.3 421.91 130.2C421.91 72.1001 392.16 38.5001 337.21 38.5001H286.11V221.9H337.21Z" />
        <path style="--index:4;" d="M199.5 254.8L175 190.05H63L38.85 254.8H0L97.3 5.6001H140.35L239.05 254.8H199.5ZM74.9 157.5H162.75L157.5 143.85C147.35 118.3 131.25 76.3001 118.65 41.6501C106.05 76.3001 89.95 118.3 80.15 143.85L74.9 157.5Z" />
    </symbol>
    <symbol viewBox="0 0 287 250" id="title-ai">
        <path style="--index:0;" d="M248.66 249.2V0H286.11V249.2H248.66Z" />
        <path style="--index:1;" d="M199.5 249.2L175 184.45H63L38.85 249.2H0L97.3 0H140.35L239.05 249.2H199.5ZM74.9 151.9H162.75L157.5 138.25C147.35 112.7 131.25 70.7 118.65 36.05C106.05 70.7 89.95 112.7 80.15 138.25L74.9 151.9Z" />
    </symbol>
    <symbol viewBox="0 0 1038 261" id="title-blkch">
        <path style="--index:4;" d="M1000.3 5.6001H1037.8V254.8H1000.3V143.9H871.8V254.8H834.3V5.6001H871.8V109.6H1000.3V5.6001Z" />
        <path style="--index:3;" d="M702.8 260.4C634.2 260.4 585.2 210.7 585.2 130.2C585.2 49.7 633.8 0 702.8 0C754.6 0 800.1 27.3 812 88.2H774.2C764.1 48.6 735 33.2 702.8 33.2C655.2 33.2 624 69.2 624 130.1C624 191 655.1 227.1 702.8 227.1C736.8 227.1 770 206.8 775.9 162.7H813.4C806.4 228.2 756.7 260.4 702.8 260.4Z" />
        <path style="--index:2;" d="M604.3 5.6001L499.7 107.1L604.3 254.8H559.1L472.7 132.3L429.3 173.9V254.8H391.9V5.6001H429.3V130.6L556.7 5.6001H604.3Z" />
        <path style="--index:1;" d="M252.2 221.2H374.3V254.8H214.7V5.6001H252.1V221.2H252.2Z" />
        <path style="--index:0;" d="M152.6 124.6C182.7 135.8 195.7 159.2 195.7 184.1C195.7 226.4 168 254.8 112.4 254.8H0V5.6001H107.4C162 5.6001 185.4 35.7001 185.4 70.4001C185.5 95.2001 173.2 113.4 152.6 124.6ZM105 37.8001H37.5V112.4H105C134.4 112.4 148.8 97.7001 148.8 73.5001C148.7 52.5001 134.4 37.8001 105 37.8001ZM110.2 222.6C141.7 222.6 157.8 207.9 157.8 183.4C157.8 155.7 139.9 143.5 110.2 143.5H37.5V222.6H110.2Z" />
    </symbol>
    <symbol viewBox="0 0 1071 261" id="title-prdct">
        <path style="--index:0;" d="M1070.51 5.6001V39.2001H987.91V254.8H949.76V39.2001H867.16V5.6001H1070.51Z" />
        <path style="--index:1;" d="M772.52 260.4C703.92 260.4 654.92 210.7 654.92 130.2C654.92 49.7 703.57 0 772.52 0C824.32 0 869.82 27.3 881.72 88.2H843.92C833.77 48.65 804.72 33.25 772.52 33.25C724.92 33.25 693.77 69.3 693.77 130.2C693.77 191.1 724.92 227.15 772.52 227.15C806.47 227.15 839.72 206.85 845.67 162.75H883.12C876.12 228.2 826.42 260.4 772.52 260.4Z" />
        <path style="--index:2;" d="M519.41 5.6001C597.46 5.6001 642.96 53.2001 642.96 130.2C642.96 207.2 597.46 254.8 519.41 254.8H430.51V5.6001H519.41ZM519.06 221.9C574.01 221.9 603.76 188.3 603.76 130.2C603.76 72.1001 574.01 38.5001 519.06 38.5001H467.96V221.9H519.06Z" />
        <path style="--index:3;" d="M402.76 224.35C403.46 235.2 405.91 246.75 411.16 254.8H372.66C367.41 247.1 365.66 235.9 365.31 222.95L364.26 196.35C362.86 162.75 349.56 152.25 321.91 152.25H249.46V254.8H212.01V5.6001H320.86C373.36 5.6001 406.61 31.1501 406.61 74.5501C406.61 105.7 390.51 126.35 364.61 134.75C390.16 142.1 399.26 159.6 400.31 185.5L402.76 224.35ZM321.56 121.1C348.86 121.1 368.11 106.75 368.11 78.0501C368.11 49.3501 348.86 37.8001 318.76 37.8001H249.46V121.1H321.56Z" />
        <path style="--index:4;" d="M106.05 5.6001C162.4 5.6001 191.45 37.8001 191.45 84.3501C191.45 130.9 162.4 162.75 106.05 162.75H37.45V254.8H0V5.6001H106.05ZM105.35 129.85C136.85 129.85 153.3 113.4 153.3 84.3501C153.3 55.3001 136.85 38.5001 105.35 38.5001H37.45V129.85H105.35Z" />
    </symbol>
    <symbol viewBox="0 0 899 250" id="title-team">
        <path style="--index:0;" d="M846.24 0H898.39V249.2H862.34V171.15C862.34 135.8 862.34 92.05 863.74 44.8C857.44 64.05 851.14 80.85 842.74 102.55L786.39 249.2H754.89L697.84 102.55C689.79 81.2 683.49 64.75 677.19 45.85C678.59 92.75 678.59 136.15 678.59 171.15V249.2H642.54V0H694.34L745.44 132.65C754.19 156.1 763.99 182.7 770.99 203C777.99 182 788.14 152.95 796.89 129.15L846.24 0Z" />
        <path style="--index:1;" d="M593.38 249.2L568.88 184.45H456.88L432.73 249.2H393.88L491.18 0H534.23L632.93 249.2H593.38ZM468.78 151.9H556.63L551.38 138.25C541.23 112.7 525.13 70.7 512.53 36.05C499.93 70.7 483.83 112.7 474.03 138.25L468.78 151.9Z" />
        <path style="--index:2;" d="M395.98 33.6H255.63V103.95H382.68V136.85H255.63V215.6H394.93V249.2H218.18V0H395.98V33.6Z" />
        <path style="--index:3;" d="M203.35 0V33.6H120.75V249.2H82.6V33.6H0V0H203.35Z" />
    </symbol>
</defs>
</svg>
